<svg height="512pt" viewBox="0 -17 512 511" width="512pt" xmlns="http://www.w3.org/2000/svg"><path d="m502 457.433594h-21.636719v-263.777344h.882813c5.523437 0 10-4.480469 10-10 0-5.523438-4.476563-10-10-10h-75.347656v-21.070312h31.855468c5.523438 0 10-4.480469 10-10v-132.085938c0-5.523438-4.476562-10-10-10h-170.539062c-5.523438 0-10 4.476562-10 10v132.085938c0 5.519531 4.476562 10 10 10h31.855468v21.070312h-69.097656v-71.339844h1.027344c5.523438 0 10-4.476562 10-10 0-5.523437-4.476562-10-10-10h-24.695312v-61.558594c0-5.523437-4.476563-10-10-10-5.523438 0-10 4.476563-10 10v22.675782h-46.496094c-5.523438 0-10 4.476562-10 10v28.882812h-108.808594c-5.523438 0-10 4.480469-10 10 0 5.523438 4.476562 10 10 10v355.117188h-11c-5.523438 0-10 4.476562-10 10 0 5.519531 4.476562 10 10 10h492c5.523438 0 10-4.480469 10-10 0-5.523438-4.476562-10-10-10zm-224.785156-436.933594h150.539062v112.085938h-150.539062zm41.855468 132.085938h66.828126v21.070312h-66.828126zm-169.261718-89.152344h36.496094v18.882812h-36.496094zm-108.808594 38.882812h168.972656v144.457032c0 5.523437 4.476563 10 10 10 5.523438 0 10-4.476563 10-10v-53.117188h230.390625v190.847656h-230.390625v-47.746094c0-5.523437-4.476562-10-10-10-5.523437 0-10 4.476563-10 10v120.675782h-168.972656zm188.972656 302.183594h77.042969v52.933594h-77.042969zm97.042969 52.933594v-52.933594h37.824219v52.933594zm57.824219 0v-52.933594h75.523437v52.933594zm0 0"/><path d="m349.78125 91.96875c0-5.613281-1.859375-10.804688-5-14.980469 3.140625-4.175781 5-9.363281 5-14.976562 0-13.773438-11.203125-24.980469-24.976562-24.980469h-16.492188c-5.523438 0-10 4.480469-10 10v59.917969c0 5.523437 4.476562 10 10 10h16.492188c13.773437 0 24.976562-11.207031 24.976562-24.980469zm-31.46875-34.9375h6.492188c2.746093 0 4.976562 2.234375 4.976562 4.980469 0 2.746093-2.230469 4.976562-4.976562 4.976562h-4.992188c-.511719 0-1.011719.039063-1.5.113281zm0 29.847656c.488281.070313.988281.109375 1.5.109375h4.992188c2.746093 0 4.976562 2.234375 4.976562 4.980469s-2.230469 4.976562-4.976562 4.976562h-6.492188zm0 0"/><path d="m385.578125 115.113281h13.636719c5.519531 0 10-4.476562 10-10 0-5.519531-4.480469-10-10-10h-13.636719c-3.414063 0-6.1875-2.777343-6.1875-6.1875v-25.703125c0-3.414062 2.773437-6.191406 6.1875-6.191406h13.636719c5.519531 0 10-4.476562 10-10 0-5.519531-4.480469-10-10-10h-13.636719c-14.441406 0-26.1875 11.75-26.1875 26.191406v25.703125c0 14.4375 11.746094 26.1875 26.1875 26.1875zm0 0"/><path d="m175.070312 128.585938h-98.140624c-5.523438 0-10 4.476562-10 10v98.140624c0 5.523438 4.476562 10 10 10h98.140624c5.523438 0 10-4.476562 10-10v-98.140624c0-5.523438-4.476562-10-10-10zm-10 49.070312h-29.070312v-29.070312h29.070312zm-78.140624-29.070312h29.070312v29.070312h-29.070312zm0 49.070312h29.070312v29.070312h-29.070312zm78.140624 29.070312h-29.070312v-29.070312h29.070312zm0 0"/><path d="m175.070312 362.09375h-98.140624c-5.523438 0-10 4.476562-10 10v49.070312c0 5.523438 4.476562 10 10 10h98.140624c5.523438 0 10-4.476562 10-10v-49.070312c0-5.523438-4.476562-10-10-10zm-88.140624 20h29.070312v29.070312h-29.070312zm78.140624 29.070312h-29.070312v-29.070312h29.070312zm0 0"/><path d="m175.070312 269.875h-98.140624c-5.523438 0-10 4.476562-10 10v49.070312c0 5.523438 4.476562 10 10 10h98.140624c5.523438 0 10-4.476562 10-10v-49.070312c0-5.523438-4.476562-10-10-10zm-88.140624 20h29.070312v29.070312h-29.070312zm78.140624 29.070312h-29.070312v-29.070312h29.070312zm0 0"/><path d="m270.632812 278.875h149.703126c5.523437 0 10-4.480469 10-10v-43.148438c0-5.523437-4.476563-10-10-10h-149.703126c-5.523437 0-10 4.476563-10 10v43.148438c0 5.523438 4.476563 10 10 10zm60.191407-20v-23.148438h29.640625v23.148438zm79.511719 0h-29.871094v-23.148438h29.871094zm-129.703126-23.148438h30.191407v23.148438h-30.191407zm0 0"/><path d="m270.632812 362.519531h149.703126c5.523437 0 10-4.476562 10-10v-43.148437c0-5.519532-4.476563-10-10-10h-149.703126c-5.523437 0-10 4.480468-10 10v43.148437c0 5.523438 4.476563 10 10 10zm60.191407-20v-23.148437h29.640625v23.148437zm79.511719 0h-29.871094v-23.148437h29.871094zm-129.703126-23.148437h30.191407v23.148437h-30.191407zm0 0"/><path d="m214.421875 300.074219c3.578125 2.390625 8.390625 2.179687 11.761719-.480469 3.183594-2.507812 4.53125-6.855469 3.355468-10.730469-1.203124-3.976562-4.875-6.863281-9.027343-7.085937-4.304688-.234375-8.378907 2.433594-9.890625 6.464844-1.601563 4.273437-.050782 9.320312 3.800781 11.832031zm0 0"/></svg>