<?xml version="1.0" encoding="iso-8859-1"?>
<!-- Generator: Adobe Illustrator 19.0.0, SVG Export Plug-In . SVG Version: 6.00 Build 0)  -->
<svg version="1.1" id="Capa_1" xmlns="http://www.w3.org/2000/svg" xmlns:xlink="http://www.w3.org/1999/xlink" x="0px" y="0px"
	 viewBox="0 0 512 512" style="enable-background:new 0 0 512 512;" xml:space="preserve">
<g>
	<g>
		<path d="M437.02,74.98C388.667,26.629,324.38,0,256,0S123.333,26.629,74.98,74.98C26.629,123.332,0,187.62,0,256
			s26.629,132.668,74.98,181.02C123.333,485.371,187.62,512,256,512s132.667-26.629,181.02-74.98
			C485.371,388.668,512,324.38,512,256S485.371,123.332,437.02,74.98z M256,497C123.112,497,15,388.888,15,256S123.112,15,256,15
			s241,108.112,241,241S388.888,497,256,497z"/>
	</g>
</g>
<g>
	<g>
		<path d="M415.806,96.194C373.12,53.508,316.367,30,256,30c-54.612,0-107.336,19.748-148.458,55.606
			c-3.122,2.722-3.446,7.46-0.724,10.581c2.722,3.123,7.46,3.448,10.582,0.724C155.791,63.436,205.013,45,256,45
			c116.346,0,211,94.654,211,211s-94.654,211-211,211S45,372.346,45,256c0-50.987,18.436-100.21,51.911-138.6
			c2.722-3.121,2.398-7.859-0.724-10.581c-3.121-2.724-7.859-2.4-10.582,0.724C49.748,148.664,30,201.388,30,256
			c0,60.367,23.508,117.121,66.194,159.807C138.88,458.493,195.633,482,256,482s117.121-23.508,159.806-66.193S482,316.367,482,256
			C482,195.634,458.492,138.88,415.806,96.194z"/>
	</g>
</g>
<g>
	<g>
		<path d="M305.5,294.5c-15.164,0-27.5,12.337-27.5,27.5c0,12.131-9.869,22-22,22c-12.131,0-22-9.869-22-22v-51
			c0-4.143-3.358-7.5-7.5-7.5c-4.142,0-7.5,3.357-7.5,7.5v51c0,20.402,16.598,37,37,37c20.402,0,37-16.598,37-37
			c0-6.893,5.607-12.5,12.5-12.5S318,315.107,318,322c0,34.187-27.813,62-62,62s-62-27.813-62-62V190c0-34.187,27.813-62,62-62
			s62,27.813,62,62c0,6.893-5.607,12.5-12.5,12.5S293,196.893,293,190c0-20.402-16.598-37-37-37c-20.402,0-37,16.598-37,37v51
			c0,4.143,3.358,7.5,7.5,7.5c4.142,0,7.5-3.357,7.5-7.5v-51c0-12.131,9.869-22,22-22s22,9.869,22,22
			c0,15.163,12.336,27.5,27.5,27.5S333,205.163,333,190c0-42.458-34.542-77-77-77s-77,34.542-77,77v132c0,42.458,34.542,77,77,77
			s77-34.542,77-77C333,306.837,320.664,294.5,305.5,294.5z"/>
	</g>
</g>
<g>
</g>
<g>
</g>
<g>
</g>
<g>
</g>
<g>
</g>
<g>
</g>
<g>
</g>
<g>
</g>
<g>
</g>
<g>
</g>
<g>
</g>
<g>
</g>
<g>
</g>
<g>
</g>
<g>
</g>
</svg>
