<?xml version="1.0" encoding="UTF-8"?>
<svg xmlns="http://www.w3.org/2000/svg" xmlns:xlink="http://www.w3.org/1999/xlink" width="512" height="512" viewBox="0 0 60 60" version="1.1"><!-- Generator: Sketch 51.3 (57544) - http://www.bohemiancoding.com/sketch --><title>003 - Car Insurance</title><desc>Created with Sketch.</desc><defs/><g id="Page-1" stroke="none" stroke-width="1" fill="none" fill-rule="evenodd"><g id="003---Car-Insurance" fill="#000000" fill-rule="nonzero"><path d="M2,52 L3,52 C3,56.418278 6.581722,60 11,60 C15.418278,60 19,56.418278 19,52 L24,52 C26.209139,52 28,50.209139 28,48 L28,38 C28,36.8954305 27.1045695,36 26,36 L20.16,36 C19.7994119,36.0026702 19.4658323,35.809263 19.289,35.495 L12.472,23.556 L17.102,20.187 C18.9224103,18.8544111 19.9987556,16.734033 20,14.478 L20,4.978 C19.9990017,4.5812911 19.7635914,4.2226828 19.4,4.064 L10.4,0.085 C10.1426568,-0.0286546871 9.84934318,-0.0286546871 9.592,0.085 L0.6,4.06 C0.236408592,4.2186828 0.000998329402,4.5772911 0,4.974 L0,14.474 C0.00171120682,16.7303905 1.07883443,18.8508375 2.9,20.183 L5.39,22 L2,22 C0.8954305,22 1.3527075e-16,22.8954305 0,24 L0,50 C1.3527075e-16,51.1045695 0.8954305,52 2,52 Z M11,58 C7.6862915,58 5,55.3137085 5,52 C5,48.6862915 7.6862915,46 11,46 C14.3137085,46 17,48.6862915 17,52 C16.9966926,55.3123376 14.3123376,57.9966926 11,58 Z M26,40 L24,40 L24,38 L26,38 L26,40 Z M2,14.478 L2,5.625 L10,2.093 L18,5.625 L18,14.478 C17.9995656,16.0946394 17.2289396,17.6143511 15.925,18.57 L10.477,22.534 L10,22.881 L4.075,18.57 C2.77106043,17.6143511 2.0004344,16.0946394 2,14.478 Z M8.138,24 L9.119,24.714 C9.62974376,25.08909 10.3226872,25.0971335 10.842,24.734 L17.552,36.486 C18.0873131,37.4214561 19.0822072,37.9990135 20.16,38 L22,38 L22,40 C22,41.1045695 22.8954305,42 24,42 L26,42 L26,48 C26,49.1045695 25.1045695,50 24,50 L18.737,50 C17.8300834,46.4681051 14.6464749,43.9986995 11,43.9986995 C7.35352508,43.9986995 4.16991662,46.4681051 3.263,50 L2,50 L2,38 L13,38 C13.346618,38.0001616 13.6685998,37.8208177 13.8509316,37.5260309 C14.0332634,37.2312442 14.0499383,36.8630616 13.895,36.553 L8.895,26.553 C8.72557542,26.2139484 8.37902596,25.9998234 8,26 L2,26 L2,24 L8.138,24 Z M2,28 L7.382,28 L11.382,36 L2,36 L2,28 Z" id="Shape"/><path d="M11,48 C8.790861,48 7,49.790861 7,52 C7,54.209139 8.790861,56 11,56 C13.209139,56 15,54.209139 15,52 C15,49.790861 13.209139,48 11,48 Z M11,54 C9.8954305,54 9,53.1045695 9,52 C9,50.8954305 9.8954305,50 11,50 C12.1045695,50 13,50.8954305 13,52 C13,53.1045695 12.1045695,54 11,54 Z" id="Shape"/><path d="M58,22 L50.161,22 C49.0845822,22.001235 48.0909857,22.5779406 47.556,23.512 L40.708,35.5 C40.5288369,35.8103233 40.1973279,36.001065 39.839,36 L34,36 C32.8954305,36 32,36.8954305 32,38 L32,48 C32,50.209139 33.790861,52 36,52 L41,52 C41,56.418278 44.581722,60 49,60 C53.418278,60 57,56.418278 57,52 L58,52 C59.1045695,52 60,51.1045695 60,50 L60,24 C60,22.8954305 59.1045695,22 58,22 Z M36,38 L36,40 L34,40 L34,38 L36,38 Z M49,58 C45.6862915,58 43,55.3137085 43,52 C43,48.6862915 45.6862915,46 49,46 C52.3137085,46 55,48.6862915 55,52 C54.9966926,55.3123376 52.3123376,57.9966926 49,58 Z M56.737,50 C55.8300834,46.4681051 52.6464749,43.9986995 49,43.9986995 C45.3535251,43.9986995 42.1699166,46.4681051 41.263,50 L36,50 C34.8954305,50 34,49.1045695 34,48 L34,42 L36,42 C37.1045695,42 38,41.1045695 38,40 L38,38 L39.839,38 C40.9154178,37.998765 41.9090143,37.4220594 42.444,36.488 L49.292,24.5 C49.4711631,24.1896767 49.8026721,23.998935 50.161,24 L58,23.9999956 L58,26 L52,26 C51.6191744,25.9979212 51.2702259,26.2123306 51.1,26.553 L46.1,36.553 C45.9446569,36.8638588 45.9618372,37.2330764 46.1453763,37.5281664 C46.3289153,37.8232565 46.6524931,38.0019021 47,38 L58,38 L58,50 L56.737,50 Z M58,36 L48.618,36 L52.618,28 L58,28 L58,36 Z" id="Shape"/><path d="M49,48 C46.790861,48 45,49.790861 45,52 C45,54.209139 46.790861,56 49,56 C51.209139,56 53,54.209139 53,52 C53,49.790861 51.209139,48 49,48 Z M49,54 C47.8954305,54 47,53.1045695 47,52 C47,50.8954305 47.8954305,50 49,50 C50.1045695,50 51,50.8954305 51,52 C51,53.1045695 50.1045695,54 49,54 Z" id="Shape"/><path d="M19.5,23.132 C19.1103974,22.909573 18.6203441,22.9738335 18.3012609,23.2891902 C17.9821777,23.6045468 17.912165,24.0938115 18.13,24.486 L23.13,33.486 C23.3036311,33.7982501 23.6306563,33.9941501 23.9878883,33.9999062 C24.3451204,34.0056623 24.6782873,33.8204002 24.8618883,33.5139062 C25.0454893,33.2074122 25.0516311,32.8262501 24.878,32.514 L21.617,26.645 L25.5,28.868 C25.8239321,29.057268 26.2265505,29.0492983 26.5427388,28.8473593 C26.8589271,28.6454204 27.0354831,28.2834907 27,27.91 L26.334,20.582 L29.19,24.582 C29.2264535,24.6223014 29.2662632,24.6594348 29.309,24.693 C29.3432937,24.7369782 29.3814451,24.7778069 29.423,24.815 C29.433,24.822 29.445,24.823 29.455,24.829 C29.5153503,24.8645263 29.5793957,24.8933635 29.646,24.915 C29.754718,24.9760958 29.8805457,24.9996445 30.004,24.982 C30.1278935,24.9996444 30.2541414,24.9757311 30.363,24.914 C30.4289009,24.8930448 30.4922853,24.864874 30.552,24.83 C30.562,24.823 30.575,24.822 30.585,24.815 C30.6268875,24.7774735 30.665371,24.7363129 30.7,24.692 C30.7421621,24.6584903 30.7816176,24.6217098 30.818,24.582 L33.674,20.582 L33,27.91 C32.9665854,28.2810346 33.1421893,28.6398848 33.4556678,28.8411666 C33.7691464,29.0424484 34.168525,29.0527894 34.492,28.868 L38.383,26.645 L35.122,32.514 C34.9483689,32.8262501 34.9545107,33.2074122 35.1381117,33.5139062 C35.3217127,33.8204002 35.6548796,34.0056623 36.0121117,33.9999062 C36.3693437,33.9941501 36.6963689,33.7982501 36.87,33.486 L41.87,24.486 C42.087835,24.0938115 42.0178223,23.6045468 41.6987391,23.2891902 C41.3796559,22.9738335 40.8896026,22.909573 40.5,23.132 L35.169,26.18 L36,17.09 C36.0407516,16.6402928 35.7750742,16.2190685 35.3516819,16.0621093 C34.9282896,15.90515 34.4522384,16.051402 34.19,16.419 L30,22.279 L25.814,16.419 C25.5531543,16.047107 25.0744193,15.8977469 24.6483799,16.0553392 C24.2223405,16.2129315 23.9560426,16.6378798 24,17.09 L24.827,26.18 L19.5,23.132 Z" id="Shape"/><path d="M32.9,31.553 C32.7815321,31.3155515 32.5735446,31.1349258 32.3218386,31.0508988 C32.0701326,30.9668717 31.7953497,30.9863341 31.558,31.105 L31,31.382 L31,30 C31,29.4477153 30.5522847,29 30,29 C29.4477153,29 29,29.4477153 29,30 L29,31.382 L28.447,31.105 C27.9527051,30.8581287 27.3518713,31.0587051 27.105,31.553 C26.8581287,32.0472949 27.0587051,32.6481287 27.553,32.895 L29.553,33.895 C29.5921142,33.9116944 29.6321847,33.9260529 29.673,33.938 C29.698,33.947 29.723,33.958 29.749,33.965 C29.8307969,33.9874923 29.9151703,33.9992575 30,34 C30.1384067,33.9958669 30.2745152,33.9635411 30.4,33.905 C30.414,33.899 30.43,33.905 30.443,33.895 L32.443,32.895 C32.6820294,32.7781393 32.8646334,32.5708398 32.9504021,32.3189763 C33.0361708,32.0671129 33.0180321,31.7914532 32.9,31.553 Z" id="Shape"/><path d="M15.614,7.21 C15.1784448,6.87329869 14.5526631,6.95196838 14.214,7.386 L7.914,15.492 L5.714,13.292 C5.32162111,12.9130278 4.69791522,12.9184476 4.31218142,13.3041814 C3.92644763,13.6899152 3.92102779,14.3136211 4.3,14.706 L7.3,17.706 C7.48561151,17.8922109 7.73709045,17.997832 8,18 C8.021,18 8.042,18 8.062,18 C8.3485357,17.9824286 8.6137007,17.8425613 8.79,17.616 L15.79,8.616 C15.9536156,8.40640709 16.0270229,8.14028277 15.9939967,7.87644849 C15.9609705,7.61261421 15.8242304,7.37279569 15.614,7.21 Z" id="Shape"/></g></g></svg>
