<?xml version="1.0" encoding="iso-8859-1"?>
<!-- Generator: Adobe Illustrator 19.0.0, SVG Export Plug-In . SVG Version: 6.00 Build 0)  -->
<svg version="1.1" id="Layer_1" xmlns="http://www.w3.org/2000/svg" xmlns:xlink="http://www.w3.org/1999/xlink" x="0px" y="0px"
	 viewBox="0 0 511.998 511.998" style="enable-background:new 0 0 511.998 511.998;" xml:space="preserve">
<g>
	<g>
		<path d="M189.725,375.792c-3.217-2.608-7.94-2.117-10.549,1.101c-3.19,3.933-7.425,6.1-11.925,6.1s-8.735-2.167-11.925-6.1
			c-2.608-3.217-7.331-3.709-10.549-1.101c-3.217,2.609-3.709,7.333-1.1,10.549c6.005,7.404,14.598,11.651,23.575,11.651
			s17.569-4.247,23.575-11.651C193.434,383.125,192.941,378.402,189.725,375.792z"/>
	</g>
</g>
<g>
	<g>
		<path d="M131.75,329.743c-4.142,0-7.5,3.357-7.5,7.5v8.875c0,4.142,3.358,7.5,7.5,7.5c4.142,0,7.5-3.358,7.5-7.5v-8.875
			C139.25,333.1,135.892,329.743,131.75,329.743z"/>
	</g>
</g>
<g>
	<g>
		<path d="M202.75,329.743c-4.142,0-7.5,3.357-7.5,7.5v8.875c0,4.142,3.358,7.5,7.5,7.5c4.142,0,7.5-3.358,7.5-7.5v-8.875
			C210.25,333.1,206.892,329.743,202.75,329.743z"/>
	</g>
</g>
<g>
	<g>
		<path d="M367.225,384.667c-3.217-2.609-7.94-2.117-10.549,1.101c-3.19,3.933-7.425,6.1-11.925,6.1s-8.735-2.167-11.925-6.1
			c-2.608-3.217-7.332-3.709-10.549-1.101c-3.217,2.609-3.709,7.333-1.1,10.549c6.005,7.404,14.598,11.651,23.575,11.651
			c8.977,0,17.569-4.247,23.575-11.651C370.934,392,370.441,387.277,367.225,384.667z"/>
	</g>
</g>
<g>
	<g>
		<path d="M309.25,338.618c-4.142,0-7.5,3.357-7.5,7.5v8.875c0,4.142,3.358,7.5,7.5,7.5c4.142,0,7.5-3.358,7.5-7.5v-8.875
			C316.75,341.975,313.392,338.618,309.25,338.618z"/>
	</g>
</g>
<g>
	<g>
		<path d="M380.25,338.618c-4.142,0-7.5,3.357-7.5,7.5v8.875c0,4.142,3.358,7.5,7.5,7.5c4.142,0,7.5-3.358,7.5-7.5v-8.875
			C387.75,341.975,384.392,338.618,380.25,338.618z"/>
	</g>
</g>
<g>
	<g>
		<path d="M508.859,198.014l-248.5-177.5c-2.608-1.862-6.11-1.862-8.719,0l-103.516,73.94V60.743h1.375c4.142,0,7.5-3.358,7.5-7.5
			c0-4.143-3.358-7.5-7.5-7.5H69.625c-4.142,0-7.5,3.357-7.5,7.5c0,4.142,3.358,7.5,7.5,7.5H71v88.801l-67.859,48.47
			C1.17,199.422,0,201.695,0,204.118v44.375c0,2.809,1.57,5.383,4.068,6.668c2.498,1.286,5.504,1.067,7.791-0.566l14.766-10.547
			v232.141c0,5.228,2.406,10.017,6.6,13.137c2.878,2.141,6.266,3.25,9.727,3.25c1.583,0,3.182-0.232,4.753-0.704l64.675-19.403
			c10.763-3.229,17.994-12.948,17.994-24.185v-14.099c11.211,5.241,23.704,8.182,36.875,8.182c13.06,0,25.581-2.92,36.874-8.184
			v14.1c0,11.237,7.231,20.956,17.994,24.185c12.275,3.683,24.937,5.526,37.609,5.526c11.572,0,23.153-1.538,34.442-4.617
			l3.974-1.084c10.955-2.988,18.606-13.005,18.606-24.36v-1.33c8.97,3.035,18.432,4.638,28,4.638s19.03-1.603,28-4.638v1.331
			c0,11.355,7.651,21.372,18.606,24.36l73.335,20c1.442,0.393,2.903,0.587,4.351,0.587c3.537,0,6.995-1.155,9.897-3.371
			c4.09-3.124,6.436-7.867,6.436-13.013V244.048l14.766,10.547c1.296,0.926,2.824,1.397,4.36,1.397c1.173,0,2.35-0.275,3.431-0.832
			c2.498-1.286,4.068-3.859,4.068-6.668v-44.375C512,201.695,510.83,199.422,508.859,198.014z M86,60.743h47.125v44.426L86,138.829
			V60.743z M167.249,427.367c-39.907,0.001-72.374-32.467-72.374-72.374c0-4.143-3.358-7.5-7.5-7.5
			c-5.652,0-10.25-4.599-10.25-10.25c0-5.652,4.598-10.25,10.25-10.25h11.353c7.06,0,13.303-4.5,15.535-11.197l5.167-15.5
			c17.632-0.389,73.2-2.857,104.424-18.47c3.705-1.853,5.207-6.357,3.354-10.063c-1.852-3.705-6.356-5.207-10.062-3.354
			c-33.491,16.746-102.454,16.958-103.147,16.958c-3.228,0.001-6.094,2.066-7.114,5.128l-6.852,20.557
			c-0.188,0.563-0.712,0.94-1.305,0.94H87.375c-0.461,0-0.919,0.014-1.375,0.039v-36.914c0-30.121,24.505-54.625,54.625-54.625h71
			c9.408,0,17.313,6.779,18.796,16.121c0.359,2.26,1.73,4.233,3.723,5.357c8.855,4.993,14.355,14.294,14.355,24.272v2.124
			c-5.701,12.938-8.875,27.229-8.875,42.251c0,20.93-1.03,42.999-2.386,62.981C228.786,405.169,199.993,427.367,167.249,427.367z
			 M226.428,458.102c-4.369-1.311-7.304-5.256-7.304-9.818v-23.008c5.542-4.088,10.598-8.822,15.051-14.115
			c-1.786,18.873-3.33,31.356-3.366,31.651c-0.26,2.078,0.361,4.17,1.712,5.77c0.387,0.458,4.019,4.623,12.362,9.838
			c2.416,1.51,4.98,2.953,7.673,4.335C243.743,462.207,234.978,460.667,226.428,458.102z M301.75,447.934L301.75,447.934
			c0,4.609-3.106,8.676-7.553,9.889l-3.974,1.084c-1.032,0.281-2.069,0.537-3.106,0.789c-24.135-6.407-36.403-14.975-40.974-18.802
			c1.17-10.059,4.362-39.012,6.479-72.723c1.571,0.876,3.235,1.604,4.988,2.131c0.32,4.379,0.965,8.723,1.931,12.977
			c4.313,19.005,15.08,36.256,30.319,48.573c3.743,3.026,7.726,5.715,11.89,8.065V447.934z M344.75,436.243
			c-16.746,0-32.466-5.553-45.46-16.056c-12.629-10.208-21.55-24.495-25.121-40.229c-1.19-5.244-1.794-10.658-1.794-16.091
			c0-4.143-3.358-7.5-7.5-7.5c-5.652,0-10.25-4.599-10.25-10.25c0-5.652,4.598-10.25,10.25-10.25
			c22.743,0,39.239-20.594,46.688-32.117c17.491,11.262,37.496,15.234,55.398,18.788c32.963,6.544,50.164,11.354,50.164,41.329
			c0,5.433-0.604,10.847-1.794,16.092c-3.57,15.732-12.492,30.019-25.121,40.228C377.215,430.69,361.496,436.243,344.75,436.243z
			 M395.301,457.824c-4.445-1.213-7.551-5.28-7.551-9.889v-8.018c4.164-2.35,8.147-5.039,11.89-8.065
			c15.239-12.317,26.006-29.568,30.319-48.573c1.438-6.332,2.166-12.863,2.166-19.411c0-43.685-31.643-49.967-62.243-56.042
			c-19.57-3.885-39.806-7.902-55.947-20.814c-1.766-1.413-4.077-1.948-6.286-1.467c-2.209,0.482-4.085,1.939-5.103,3.959
			c-0.042,0.083-4.244,8.355-11.351,16.41c-6.019,6.822-15.472,14.955-26.321,14.955c-3.692,0-7.199,0.803-10.363,2.233
			c0.073-4.188,0.113-8.357,0.113-12.484c0-49.695,40.43-90.125,90.125-90.125s90.125,40.43,90.125,90.125
			c0,53.719,6.666,114.665,8.481,130.269c-4.622,3.872-16.916,12.439-41.08,18.839L395.301,457.824z M497,233.918l-41.412-29.58
			c-3.37-2.407-8.055-1.626-10.462,1.744c-2.408,3.371-1.627,8.055,1.744,10.462l23.506,16.79v243.163
			c0,0.562-0.294,0.905-0.541,1.093c-0.247,0.188-0.654,0.382-1.196,0.234l-40.454-11.033c20.505-8.641,28.372-17.708,28.795-18.209
			c1.351-1.6,1.972-3.692,1.712-5.77c-0.088-0.705-8.817-71.271-8.817-132.195c0-57.966-47.159-105.125-105.125-105.125
			c-34.9,0-65.877,17.1-85.008,43.356c-3.254-7.228-8.493-13.541-15.25-18.103c-3.945-14.829-17.246-25.253-32.867-25.253h-71
			c-38.392,0-69.625,31.233-69.625,69.625v42.928c-5.426,4.635-8.875,11.519-8.875,19.197c0,11.398,7.592,21.057,17.984,24.185
			c1.911,26.122,15.37,49.073,35.266,63.806v23.052c0,4.562-2.936,8.507-7.305,9.818l-64.675,19.403
			c-0.545,0.164-0.963-0.025-1.216-0.214c-0.253-0.188-0.554-0.532-0.554-1.103V233.334L256,80.209L420.235,197.52
			c3.371,2.407,8.055,1.626,10.462-1.744c2.408-3.37,1.627-8.055-1.744-10.462L260.359,64.889c-2.608-1.862-6.11-1.862-8.719,0
			L15,233.918v-25.941L256,35.834l241,172.143V233.918z"/>
	</g>
</g>
<g>
</g>
<g>
</g>
<g>
</g>
<g>
</g>
<g>
</g>
<g>
</g>
<g>
</g>
<g>
</g>
<g>
</g>
<g>
</g>
<g>
</g>
<g>
</g>
<g>
</g>
<g>
</g>
<g>
</g>
</svg>
