<?xml version="1.0"?>
<svg xmlns="http://www.w3.org/2000/svg" id="Layer_1" data-name="Layer 1" viewBox="0 0 512 512" width="512" height="512"><title>Protect</title><path d="M461.391,188.749a8,8,0,0,0-8.68-6.71A32.026,32.026,0,0,0,423.8,215.461l1.207,49.44a39.9,39.9,0,0,0-31.019,22.406l-18.45,38.739a43.232,43.232,0,0,1-11.924,15.06l-3.836,3.075a79.033,79.033,0,0,0-29.723,63.5l-5.83-2.777a8,8,0,0,0-10.662,3.783l-20.232,42.48a8,8,0,0,0,3.783,10.662l93.219,44.4a7.994,7.994,0,0,0,10.662-3.783l20.232-42.48a8,8,0,0,0-3.784-10.662l-1.945-.927L413.1,434.7a18.908,18.908,0,0,1,4.326-13.163L465.7,363.124q.171-.207.327-.424a81.258,81.258,0,0,0,15.19-48.38,7.93,7.93,0,0,0-.1-1.13Zm-71.4,299.588-78.773-37.516,13.352-28.034L403.34,460.3Zm63.2-135.193-48.1,58.2a34.844,34.844,0,0,0-7.924,24.911c.02.263.053.526.1.786l.506,2.884-50.995-24.287a63.12,63.12,0,0,1,23.01-58.978l3.835-3.075a59.326,59.326,0,0,0,16.361-20.663l18.451-38.739a23.951,23.951,0,0,1,24.042-13.5l-26.3,55.213a8,8,0,0,0,14.445,6.88L450.951,279.1a8,8,0,0,0-3.783-10.663,40.059,40.059,0,0,0-6.128-2.317l-1.249-51.148c0-.069,0-.139-.008-.208a16.045,16.045,0,0,1,7.269-14.28l18.17,114.629A65.168,65.168,0,0,1,453.188,353.144Z"/><path d="M198.439,408.684a8,8,0,0,0-10.662-3.783l-5.83,2.777a79.034,79.034,0,0,0-29.724-63.5l-3.835-3.075a43.232,43.232,0,0,1-11.924-15.06l-18.45-38.739A39.9,39.9,0,0,0,87,264.9L88.2,215.461a32.026,32.026,0,0,0-28.913-33.422,8,8,0,0,0-8.68,6.71L30.884,313.19a7.93,7.93,0,0,0-.1,1.13,81.258,81.258,0,0,0,15.19,48.38q.156.218.327.424l48.273,58.417A18.908,18.908,0,0,1,98.9,434.7l-2.4,13.667-1.945.927a8,8,0,0,0-3.784,10.662l20.232,42.48a7.994,7.994,0,0,0,10.662,3.783l93.219-44.4a8,8,0,0,0,3.783-10.662Zm-91.529,2.664-48.1-58.2a65.168,65.168,0,0,1-12.034-38.028l18.17-114.629a16.045,16.045,0,0,1,7.269,14.28c0,.069-.006.139-.008.208L70.96,266.123a40.059,40.059,0,0,0-6.128,2.317A8,8,0,0,0,61.049,279.1l30.328,63.678a8,8,0,0,0,14.445-6.88l-26.3-55.213a23.944,23.944,0,0,1,24.042,13.5l18.451,38.738a59.32,59.32,0,0,0,16.361,20.664l3.834,3.075a63.118,63.118,0,0,1,23.011,58.978L114.23,439.929l.506-2.884c.045-.26.078-.523.1-.786A34.844,34.844,0,0,0,106.91,411.348Zm15.1,76.989L108.66,460.3l78.774-37.516,13.352,28.034Z"/><path d="M119.468,272H392.532A8.692,8.692,0,0,0,401,263.677V238.952c0-4.418-4.05-7.952-8.468-7.952H384V217.305A8.372,8.372,0,0,0,375.876,209H363V130h16.749a8.014,8.014,0,0,0,5.287-14.024L261.287,7a8,8,0,0,0-10.574,0L126.964,115.97A8.018,8.018,0,0,0,132.251,130H149v79H136.124A8.372,8.372,0,0,0,128,217.305V231h-8.532c-4.418,0-8.468,3.534-8.468,7.952v24.725A8.692,8.692,0,0,0,119.468,272ZM347,209h-8V130h8ZM206,130v79H189V130Zm16,0h7v79h-7Zm23,0h22v79H245Zm38,0h7v79h-7Zm23,0h17v79H306ZM256,23.687,358.56,114H153.44ZM165,130h8v79h-8Zm-21,95H368v6H144Zm-17,22H385v9H127Z"/><path d="M256,47.758A31.444,31.444,0,1,0,287.444,79.2,31.479,31.479,0,0,0,256,47.758Zm0,46.888A15.444,15.444,0,1,1,271.444,79.2,15.461,15.461,0,0,1,256,94.646Z"/></svg>
