<?xml version="1.0" encoding="iso-8859-1"?>
<!-- Generator: Adobe Illustrator 19.0.0, SVG Export Plug-In . SVG Version: 6.00 Build 0)  -->
<svg version="1.1" id="Capa_1" xmlns="http://www.w3.org/2000/svg" xmlns:xlink="http://www.w3.org/1999/xlink" x="0px" y="0px"
	 viewBox="0 0 480 480" style="enable-background:new 0 0 480 480;" xml:space="preserve">
<g>
	<g>
		<circle cx="311.992" cy="363.975" r="8"/>
	</g>
</g>
<g>
	<g>
		<path d="M301.088,197.687c-0.615-0.486-1.297-0.882-2.024-1.176c-3.379-1.343-7.239-0.258-9.424,2.648
			c-0.518,0.685-0.921,1.449-1.192,2.264c-1.045,3.19-0.007,6.694,2.608,8.8c0.235,0.189,0.481,0.366,0.736,0.528
			c0.412,0.252,0.842,0.471,1.288,0.656c0.953,0.389,1.971,0.595,3,0.608c0.578-0.001,1.155-0.063,1.72-0.184
			c1.881-0.419,3.55-1.497,4.704-3.04c0.244-0.317,0.46-0.655,0.648-1.008l0.112-0.216
			C304.942,204.171,304.038,200.065,301.088,197.687z"/>
	</g>
</g>
<g>
	<g>
		<path d="M72,290.623c-0.136-0.786-0.384-1.548-0.736-2.264c-1.888-3.724-6.299-5.4-10.184-3.872
			c-3.942,1.597-5.97,5.976-4.64,10.016c0.121,0.356,0.265,0.703,0.432,1.04c1.369,2.721,4.153,4.441,7.2,4.448
			c0.857-0.001,1.708-0.141,2.52-0.416C70.345,298.32,72.636,294.529,72,290.623z"/>
	</g>
</g>
<g>
	<g>
		<path d="M472,268.015c4.418,0,8-3.582,8-8s-3.582-8-8-8h-56v-80h56c4.418,0,8-3.582,8-8s-3.582-8-8-8h-64c-4.418,0-8,3.582-8,8v88
			h-56v-32c0.013-31.863-23.197-58.982-54.68-63.888c-0.436-0.073-0.878-0.111-1.32-0.112h-20.656l-85.656-85.656
			c-3.107-3.141-8.172-3.169-11.314-0.063c-1.527,1.51-2.383,3.571-2.374,5.719v96c0,4.418,3.582,8,8,8
			c13.224-0.024,23.964,10.676,23.988,23.9c0.023,12.606-9.732,23.071-22.308,23.932c-4.454-5.461-11.223-8.501-18.264-8.2
			l-22.176-60.936c-1.504-4.148-6.081-6.295-10.232-4.8l-68.912,24.856l-36.408-36.408c-1.508-1.508-3.555-2.352-5.688-2.344H8
			c-4.418,0-8,3.582-8,8s3.582,8,8,8h4.72l37.68,37.656c2.193,2.19,5.453,2.916,8.368,1.864l66.224-23.864l19.16,52.648l-15.04,5.48
			c-4.155,1.503-6.304,6.09-4.801,10.244c0,0.001,0.001,0.002,0.001,0.004l8.184,22.496l-25.296,9
			c-10.41-22.477-36.329-33.2-59.576-24.648c-24.888,9.095-37.721,36.617-28.688,61.528c9.143,24.883,36.726,37.643,61.609,28.501
			c20.607-7.572,33.451-28.159,31.191-49.997l33.736-12h0.064l25.048-9.12c8.976-3.718,14.394-12.941,13.272-22.592
			c21.658-4.356,35.683-25.445,31.327-47.102c-3.167-15.747-15.447-28.073-31.183-31.298V95.327l72,72v84.688h-40
			c-4.418,0-8,3.582-8,8v64.848c-9.846,3.356-16.342,12.755-16,23.152c-0.679,12.497,8.838,23.206,21.328,24h51.392
			c1.514,8.938,5.537,17.261,11.6,24H8c-4.418,0-8,3.582-8,8s3.582,8,8,8h464c4.418,0,8-3.582,8-8s-3.582-8-8-8H347.712
			c6.063-6.739,10.086-15.062,11.6-24H472c4.418,0,8-3.582,8-8s-3.582-8-8-8H359.312c-4.392-26.112-29.12-43.72-55.232-39.328
			c-20.151,3.389-35.939,19.177-39.328,39.328H248v-24c0-4.418-3.582-8-8-8h-16v-56H472z M272,172.015h15.336
			c23.496,3.855,40.723,24.19,40.664,48v32h-56V172.015z M74.984,322.079h0.008c-16.609,6.003-34.945-2.547-41.024-19.128
			c-6.043-16.608,2.521-34.97,19.129-41.013c16.608-6.043,34.97,2.521,41.013,19.129C100.153,297.674,91.59,316.035,74.984,322.079z
			 M165.088,250.743l-17.536,6.4l-5.472-15.048l15.024-5.48l2.496-0.912c2.4-0.856,6.144,1.264,7.752,5.696
			C168.96,245.831,167.464,249.871,165.088,250.743z M312,332.015c17.673,0,32,14.327,32,32c0,17.673-14.327,32-32,32
			c-17.673,0-32-14.327-32-32C280,346.342,294.327,332.015,312,332.015z M232,340.015v16h-18.64c-2.52,0-5.328-3.288-5.328-8
			c0-4.712,2.808-8,5.328-8H232z"/>
	</g>
</g>
<g>
</g>
<g>
</g>
<g>
</g>
<g>
</g>
<g>
</g>
<g>
</g>
<g>
</g>
<g>
</g>
<g>
</g>
<g>
</g>
<g>
</g>
<g>
</g>
<g>
</g>
<g>
</g>
<g>
</g>
</svg>
