<svg height="480pt" viewBox="-56 0 480 480" width="480pt" xmlns="http://www.w3.org/2000/svg"><path d="m128 112h-16v-12.449219c9.867188-5.671875 15.964844-16.171875 16-27.550781v-40c0-17.671875-14.328125-32-32-32h-16c-17.671875 0-32 14.328125-32 32v40c.035156 11.378906 6.132812 21.878906 16 27.550781v12.449219h-16c-26.5.027344-47.9726562 21.5-48 48v112c0 4.417969 3.582031 8 8 8h24v152c-4.417969 0-8 3.582031-8 8v32c0 4.417969 3.582031 8 8 8h112c4.417969 0 8-3.582031 8-8v-32c0-4.417969-3.582031-8-8-8v-152h24c4.417969 0 8-3.582031 8-8v-112c-.027344-26.5-21.5-47.972656-48-48zm-48-96h8c4.417969 0 8 3.582031 8 8 .003906 2.160156-.882812 4.222656-2.457031 5.703125-1.457031 1.488281-3.460938 2.316406-5.542969 2.296875h-24c0-8.835938 7.164062-16 16-16zm-16 32h24c5.933594.023438 11.65625-2.214844 16-6.257812 2.328125 2.109374 5.046875 3.742187 8 4.800781v25.457031c0 8.835938-7.164062 16-16 16h-16c-8.835938 0-16-7.164062-16-16zm16 56h16v8h-16zm-32 24h80c17.671875 0 32 14.328125 32 32v16h-40v16h8v72h-80v-72h8v-16h-40v-16c0-17.671875 14.328125-32 32-32zm-32 64h16v72h-16zm24 256h40v16h-40zm96 16h-40v-16h40zm-8-32h-32v-104h-16v104h-32v-152h80zm16-168v-72h16v72zm0 0"/><path d="m344 240h-8v-32c0-13.253906-10.746094-24-24-24h-40c-13.253906 0-24 10.746094-24 24v32h-8c-13.253906 0-24 10.746094-24 24v176c0 13.253906 10.746094 24 24 24h8v16h16v-16h56v16h16v-16h8c13.253906 0 24-10.746094 24-24v-176c0-13.253906-10.746094-24-24-24zm-80-32c0-4.417969 3.582031-8 8-8h40c4.417969 0 8 3.582031 8 8v32h-56zm88 232c0 4.417969-3.582031 8-8 8h-104c-4.417969 0-8-3.582031-8-8v-176c0-4.417969 3.582031-8 8-8h104c4.417969 0 8 3.582031 8 8zm0 0"/><path d="m327.199219 316.425781c-1.503907-2.523437-4.222657-4.070312-7.160157-4.070312-2.933593 0-5.65625 1.546875-7.160156 4.070312l-16 32c-1.234375 2.472657-1.105468 5.410157.34375 7.765625 1.449219 2.355469 4.011719 3.796875 6.777344 3.808594h32c2.78125.015625 5.367188-1.414062 6.835938-3.773438 1.46875-2.363281 1.605468-5.316406.363281-7.800781zm-10.253907 27.574219 3.054688-6.113281 3.054688 6.113281zm0 0"/><path d="m289.710938 377.359375c-1.609376-1.386719-3.722657-2.054687-5.839844-1.847656-2.109375.1875-4.0625 1.207031-5.421875 2.832031l-20.578125 24.511719c-2.839844 3.386719-2.398438 8.433593.984375 11.273437l36.800781 30.847656c3.382812 2.835938 8.421875 2.394532 11.265625-.984374l20.566406-24.503907c2.839844-3.382812 2.402344-8.429687-.984375-11.273437zm10.082031 50.214844-24.519531-20.558594 10.277343-12.253906 24.511719 20.566406zm0 0"/><path d="m264 328c1.40625.003906 2.785156-.367188 4-1.070312l34.640625-20c1.84375-1.058594 3.191406-2.800782 3.746094-4.851563.554687-2.050781.269531-4.238281-.785157-6.078125l-12-20.800781c-2.210937-3.824219-7.101562-5.136719-10.929687-2.925781l-34.671875 20.015624c-3.824219 2.207032-5.136719 7.101563-2.929688 10.925782l12 20.800781c1.433594 2.46875 4.074219 3.988281 6.929688 3.984375zm19.703125-37.847656 4 6.917968-20.800781 12-4-6.917968zm0 0"/></svg>